<?xml version="1.0" encoding="utf-8"?><svg version="1.1" id="Layer_1" xmlns="http://www.w3.org/2000/svg" xmlns:xlink="http://www.w3.org/1999/xlink" x="0px" y="0px" width="122.88px" height="93.504px" viewBox="0 0 122.88 93.504" enable-background="new 0 0 122.88 93.504" xml:space="preserve"><g><path d="M8.431,5.385c-0.826,0-1.586,0.347-2.143,0.903C5.732,6.844,5.386,7.604,5.386,8.43v19.269v18.994v19.113v19.621 c0,0.59,0.379,1.158,0.926,1.615c0.805,0.676,1.873,1.076,2.804,1.076h9.585v-7.51c0-1.486,1.206-2.691,2.692-2.691h14.453 c1.487,0,2.692,1.205,2.692,2.691v7.51h47.527v-7.51c0-1.486,1.205-2.691,2.692-2.691h14.334c1.487,0,2.692,1.205,2.692,2.691v7.51 h9.018c0.711,0,1.382-0.314,1.88-0.813c0.499-0.498,0.813-1.168,0.813-1.879V19.233c0-0.744-0.301-1.417-0.789-1.904 c-0.486-0.487-1.159-0.789-1.904-0.789H64.887c-1.486,0-2.692-1.206-2.692-2.692c0-2.134-0.003-4.664-0.659-6.395 c-0.452-1.193-1.391-2.067-3.306-2.067H8.431L8.431,5.385z M68.604,58.285h39.33v5.227h-39.33V58.285L68.604,58.285z M68.604,30.956h39.33v5.226h-39.33V30.956L68.604,30.956z M68.604,44.621h39.33v5.227h-39.33V44.621L68.604,44.621z M26.408,27.895v4.501c-2.268,0.578-2.162,6.792,0.36,6.792c0.777-0.014,4.376,5.216,4.906,6.088c1.028,1.691,0,2.313,0,3.469 c-11.033,2.488-14.216,3.6-14.216,14.766h19.279h19.278c0-11.166-3.184-12.277-14.216-14.766c0-1.375-0.911-1.969,0-3.469 c1.028-1.692,2.911-4.06,4.846-6.089c2.659,0.05,2.725-6.204,0.42-6.792v-4.501C47.064,17.05,26.408,17.05,26.408,27.895 L26.408,27.895z M2.48,2.481C4.008,0.953,6.118,0,8.431,0h49.798c4.727,0,7.118,2.351,8.334,5.56 c0.675,1.782,0.901,3.732,0.978,5.595h47.261c2.232,0,4.251,0.904,5.713,2.366c1.462,1.462,2.365,3.482,2.365,5.712v66.195 c0,2.197-0.924,4.221-2.391,5.688c-1.467,1.465-3.489,2.389-5.688,2.389h-11.71c-1.487,0-2.692-1.205-2.692-2.691v-7.51H91.45v7.51 c0,1.486-1.205,2.691-2.692,2.691H35.846c-1.487,0-2.693-1.205-2.693-2.691v-7.51h-9.067v7.51c0,1.486-1.205,2.691-2.692,2.691 H9.116c-2.123,0-4.504-0.871-6.253-2.338C1.172,89.75,0,87.775,0,85.428V65.807V46.693V27.699V8.43C0,6.117,0.953,4.008,2.48,2.481 L2.48,2.481z"/></g></svg>